# This file uses centimeters as units for non-parametric coordinates.

mtllib boulder.mtl
g default
v -0.574054 -0.531197 0.624091
v -0.219893 -0.604604 0.715928
v 0.223780 -0.595796 0.707144
v 0.585494 -0.479757 0.573621
v -0.602327 0.000000 0.664175
v -0.213057 0.000000 0.780246
v 0.217249 0.000000 0.770789
v 0.614936 0.000000 0.603358
v -0.574054 0.531197 0.624091
v -0.219893 0.604604 0.715928
v 0.223780 0.595796 0.707144
v 0.585494 0.479757 0.573621
v -0.710548 0.648550 0.242627
v -0.260910 0.776671 0.263645
v 0.262966 0.765356 0.259866
v 0.722852 0.576891 0.216178
v -0.704886 0.640835 -0.236972
v -0.258352 0.767433 -0.261898
v 0.259666 0.756253 -0.259045
v 0.714081 0.570029 -0.216999
v -0.541235 0.486781 -0.605680
v -0.201993 0.546096 -0.706155
v 0.200679 0.538140 -0.701394
v 0.535786 0.439409 -0.577028
v -0.563082 -0.000000 -0.642008
v -0.192599 -0.000000 -0.769136
v 0.190848 -0.000000 -0.764217
v 0.554325 -0.000000 -0.608833
v -0.541235 -0.486781 -0.605680
v -0.201993 -0.546096 -0.706155
v 0.200679 -0.538140 -0.701394
v 0.535786 -0.439409 -0.577028
v -0.704886 -0.640835 -0.236972
v -0.258352 -0.767433 -0.261898
v 0.259666 -0.756253 -0.259045
v 0.714081 -0.570029 -0.216999
v -0.710548 -0.648550 0.242627
v -0.260910 -0.776671 0.263645
v 0.262966 -0.765356 0.259866
v 0.722852 -0.576891 0.216178
v 0.778998 0.000000 -0.209992
v 0.788549 0.000000 0.208896
v -0.768489 0.000000 -0.232817
v -0.774538 0.000000 0.239125
v -0.213057 -0.425300 0.780246
v 0.001220 -0.613716 0.724671
v 0.217249 -0.419104 0.770789
v 0.446340 -0.542039 0.654561
v 0.614936 -0.353752 0.603358
v -0.424703 0.000000 0.751896
v 0.001394 0.000000 0.789696
v 0.433103 0.000000 0.714066
v -0.602327 0.398662 0.664175
v -0.213057 0.425300 0.780246
v -0.438114 0.577270 0.689698
v 0.217249 0.419104 0.770789
v 0.001220 0.613716 0.724671
v 0.614936 0.353752 0.603358
v 0.446340 0.542039 0.654561
v -0.655621 0.598905 0.483234
v -0.240401 0.717219 0.522973
v -0.518578 0.741558 0.253136
v 0.243373 0.706770 0.516208
v 0.000174 0.788375 0.267148
v 0.668056 0.532731 0.435880
v 0.525758 0.696299 0.238022
v -0.728857 0.665098 0.001432
v -0.267746 0.796488 0.000205
v -0.514077 0.732737 -0.249435
v 0.269497 0.784885 -0.000000
v 0.000000 0.778998 -0.266052
v 0.741117 0.591611 -0.000000
v 0.519332 0.688017 -0.238022
v -0.632974 0.568048 -0.469202
v -0.230172 0.680266 -0.517214
v -0.406612 0.521407 -0.673607
v 0.230173 0.670356 -0.512923
v 0.000000 0.554325 -0.717005
v 0.632974 0.505284 -0.439165
v 0.401358 0.489585 -0.654561
v -0.563082 0.359356 -0.642008
v -0.192599 0.376029 -0.769136
v -0.388702 -0.000000 -0.733741
v 0.190848 0.370551 -0.764217
v 0.000000 -0.000000 -0.780934
v 0.554325 0.318752 -0.608833
v 0.381696 -0.000000 -0.714066
v -0.563082 -0.359356 -0.642008
v -0.192599 -0.376029 -0.769136
v -0.406612 -0.521407 -0.673607
v 0.190848 -0.370551 -0.764217
v 0.000000 -0.554325 -0.717005
v 0.554325 -0.318752 -0.608833
v 0.401358 -0.489585 -0.654561
v -0.632974 -0.568048 -0.469202
v -0.230172 -0.680266 -0.517214
v -0.514077 -0.732737 -0.249435
v 0.230173 -0.670356 -0.512923
v 0.000000 -0.778998 -0.266052
v 0.632974 -0.505284 -0.439165
v 0.519332 -0.688017 -0.238022
v -0.728857 -0.665098 0.001432
v -0.267746 -0.796488 0.000205
v -0.518578 -0.741558 0.253136
v 0.269497 -0.784885 0.000000
v 0.000174 -0.788375 0.267148
v 0.741117 -0.591611 0.000000
v 0.525758 -0.696299 0.238022
v -0.655621 -0.598905 0.483234
v -0.240401 -0.717219 0.522973
v 0.243373 -0.706770 0.516208
v 0.668056 -0.532731 0.435880
v 0.778998 -0.398025 -0.209992
v 0.788549 -0.402816 0.208896
v 0.690517 0.000000 -0.426872
v 0.808491 0.000000 0.000000
v 0.728724 0.000000 0.422492
v 0.778998 0.398025 -0.209992
v 0.788549 0.402816 0.208896
v -0.768489 -0.457651 -0.232817
v -0.774538 -0.463160 0.239125
v -0.690517 0.000000 -0.461200
v -0.794479 0.000000 0.001636
v -0.714713 0.000000 0.476611
v -0.768489 0.457651 -0.232817
v -0.774538 0.463160 0.239125
v -0.438114 -0.577270 0.689698
v -0.602327 -0.398662 0.664175
v -0.424703 -0.406072 0.751896
v 0.001394 -0.431709 0.789696
v 0.433103 -0.381289 0.714066
v -0.424703 0.406072 0.751896
v 0.001394 0.431709 0.789696
v 0.433103 0.381289 0.714066
v -0.478346 0.684793 0.503104
v 0.000697 0.728027 0.529597
v 0.486049 0.643000 0.476044
v -0.531988 0.760479 0.000818
v 0.000000 0.808491 -0.000000
v 0.538994 0.714066 -0.000000
v -0.460345 0.649511 -0.493208
v 0.000000 0.690517 -0.525216
v 0.460345 0.609871 -0.476044
v -0.388702 0.359029 -0.733741
v 0.000000 0.381696 -0.780934
v 0.381696 0.337117 -0.714066
v -0.388702 -0.359029 -0.733741
v 0.000000 -0.381696 -0.780934
v 0.381696 -0.337117 -0.714066
v -0.460345 -0.649511 -0.493208
v 0.000000 -0.690517 -0.525216
v 0.460345 -0.609871 -0.476044
v -0.531988 -0.760479 0.000818
v 0.000000 -0.808491 0.000000
v 0.538994 -0.714066 0.000000
v -0.478346 -0.684793 0.503104
v 0.000697 -0.728027 0.529597
v 0.486049 -0.643000 0.476044
v 0.690517 -0.352816 -0.426872
v 0.808491 -0.413094 0.000000
v 0.728724 -0.371981 0.422492
v 0.690517 0.352816 -0.426872
v 0.808491 0.413094 0.000000
v 0.728724 0.371981 0.422492
v -0.690517 -0.405670 -0.461200
v -0.794479 -0.474978 0.001636
v -0.714713 -0.427707 0.476611
v -0.690517 0.405670 -0.461200
v -0.794479 0.474978 0.001636
v -0.714713 0.427707 0.476611
vt 0.375000 0.000000
vt 0.416667 0.000000
vt 0.416667 0.041667
vt 0.375000 0.041667
vt 0.458333 0.000000
vt 0.458333 0.041667
vt 0.458333 0.125000
vt 0.375000 0.125000
vt 0.500000 0.000000
vt 0.500000 0.041667
vt 0.541667 0.000000
vt 0.541667 0.041667
vt 0.541667 0.125000
vt 0.583333 0.000000
vt 0.583333 0.041667
vt 0.625000 0.000000
vt 0.625000 0.041667
vt 0.625000 0.125000
vt 0.416667 0.125000
vt 0.500000 0.125000
vt 0.583333 0.125000
vt 0.416667 0.208333
vt 0.375000 0.208333
vt 0.458333 0.208333
vt 0.458333 0.250000
vt 0.416667 0.250000
vt 0.375000 0.250000
vt 0.500000 0.208333
vt 0.541667 0.208333
vt 0.541667 0.250000
vt 0.500000 0.250000
vt 0.583333 0.208333
vt 0.625000 0.208333
vt 0.625000 0.250000
vt 0.583333 0.250000
vt 0.416667 0.291667
vt 0.375000 0.291667
vt 0.458333 0.291667
vt 0.458333 0.333333
vt 0.416667 0.333333
vt 0.375000 0.333333
vt 0.500000 0.291667
vt 0.541667 0.291667
vt 0.541667 0.333333
vt 0.500000 0.333333
vt 0.583333 0.291667
vt 0.625000 0.291667
vt 0.625000 0.333333
vt 0.583333 0.333333
vt 0.416667 0.375000
vt 0.375000 0.375000
vt 0.458333 0.375000
vt 0.458333 0.416667
vt 0.416667 0.416667
vt 0.375000 0.416667
vt 0.500000 0.375000
vt 0.541667 0.375000
vt 0.541667 0.416667
vt 0.500000 0.416667
vt 0.583333 0.375000
vt 0.625000 0.375000
vt 0.625000 0.416667
vt 0.583333 0.416667
vt 0.416667 0.458333
vt 0.375000 0.458333
vt 0.458333 0.458333
vt 0.458333 0.500000
vt 0.416667 0.500000
vt 0.375000 0.500000
vt 0.500000 0.458333
vt 0.541667 0.458333
vt 0.541667 0.500000
vt 0.500000 0.500000
vt 0.583333 0.458333
vt 0.625000 0.458333
vt 0.625000 0.500000
vt 0.583333 0.500000
vt 0.416667 0.541667
vt 0.375000 0.541667
vt 0.458333 0.541667
vt 0.458333 0.625000
vt 0.416667 0.625000
vt 0.375000 0.625000
vt 0.500000 0.541667
vt 0.541667 0.541667
vt 0.541667 0.625000
vt 0.500000 0.625000
vt 0.583333 0.541667
vt 0.625000 0.541667
vt 0.625000 0.625000
vt 0.583333 0.625000
vt 0.416667 0.708333
vt 0.375000 0.708333
vt 0.458333 0.708333
vt 0.458333 0.750000
vt 0.416667 0.750000
vt 0.375000 0.750000
vt 0.500000 0.708333
vt 0.541667 0.708333
vt 0.541667 0.750000
vt 0.500000 0.750000
vt 0.583333 0.708333
vt 0.625000 0.708333
vt 0.625000 0.750000
vt 0.583333 0.750000
vt 0.416667 0.791667
vt 0.375000 0.791667
vt 0.458333 0.791667
vt 0.458333 0.833333
vt 0.416667 0.833333
vt 0.375000 0.833333
vt 0.500000 0.791667
vt 0.541667 0.791667
vt 0.541667 0.833333
vt 0.500000 0.833333
vt 0.583333 0.791667
vt 0.625000 0.791667
vt 0.625000 0.833333
vt 0.583333 0.833333
vt 0.416667 0.875000
vt 0.375000 0.875000
vt 0.458333 0.875000
vt 0.458333 0.916667
vt 0.416667 0.916667
vt 0.375000 0.916667
vt 0.500000 0.875000
vt 0.541667 0.875000
vt 0.541667 0.916667
vt 0.500000 0.916667
vt 0.583333 0.875000
vt 0.625000 0.875000
vt 0.625000 0.916667
vt 0.583333 0.916667
vt 0.416667 0.958333
vt 0.375000 0.958333
vt 0.458333 0.958333
vt 0.458333 1.000000
vt 0.416667 1.000000
vt 0.375000 1.000000
vt 0.500000 0.958333
vt 0.541667 0.958333
vt 0.541667 1.000000
vt 0.500000 1.000000
vt 0.583333 0.958333
vt 0.625000 0.958333
vt 0.625000 1.000000
vt 0.583333 1.000000
vt 0.791667 0.000000
vt 0.833333 0.000000
vt 0.833333 0.041667
vt 0.791667 0.041667
vt 0.875000 0.000000
vt 0.875000 0.041667
vt 0.791667 0.125000
vt 0.708333 0.000000
vt 0.750000 0.000000
vt 0.750000 0.041667
vt 0.708333 0.041667
vt 0.708333 0.125000
vt 0.666667 0.000000
vt 0.666667 0.041667
vt 0.875000 0.125000
vt 0.833333 0.125000
vt 0.750000 0.125000
vt 0.666667 0.125000
vt 0.833333 0.208333
vt 0.791667 0.208333
vt 0.875000 0.208333
vt 0.875000 0.250000
vt 0.833333 0.250000
vt 0.791667 0.250000
vt 0.750000 0.208333
vt 0.708333 0.208333
vt 0.750000 0.250000
vt 0.708333 0.250000
vt 0.666667 0.208333
vt 0.666667 0.250000
vt 0.125000 0.000000
vt 0.166667 0.000000
vt 0.166667 0.041667
vt 0.125000 0.041667
vt 0.208333 0.000000
vt 0.208333 0.041667
vt 0.208333 0.125000
vt 0.250000 0.000000
vt 0.250000 0.041667
vt 0.291667 0.000000
vt 0.291667 0.041667
vt 0.291667 0.125000
vt 0.333333 0.000000
vt 0.333333 0.041667
vt 0.166667 0.125000
vt 0.125000 0.125000
vt 0.250000 0.125000
vt 0.333333 0.125000
vt 0.166667 0.208333
vt 0.125000 0.208333
vt 0.208333 0.208333
vt 0.208333 0.250000
vt 0.166667 0.250000
vt 0.125000 0.250000
vt 0.250000 0.208333
vt 0.291667 0.208333
vt 0.291667 0.250000
vt 0.250000 0.250000
vt 0.333333 0.208333
vt 0.333333 0.250000
vn -0.589323 -0.472031 0.655656
vn -0.276818 -0.620340 0.733859
vn -0.278630 -0.091128 0.956065
vn -0.688696 -0.069599 0.721702
vn -0.108822 -0.660353 0.743029
vn -0.092120 -0.107387 0.989940
vn -0.087691 0.000000 0.996148
vn -0.283187 0.000000 0.959065
vn -0.691270 0.000000 0.722596
vn 0.026889 -0.667996 0.743679
vn 0.022822 -0.109435 0.993732
vn 0.206276 -0.646957 0.734095
vn 0.176769 -0.107121 0.978406
vn 0.170002 0.000000 0.985444
vn 0.021735 0.000000 0.999764
vn 0.402705 -0.582086 0.706402
vn 0.380680 -0.086783 0.920626
vn 0.637737 -0.440886 0.631594
vn 0.699632 -0.067214 0.711335
vn 0.701149 0.000000 0.713015
vn 0.382300 0.000000 0.924038
vn -0.278630 0.091128 0.956065
vn -0.688696 0.069599 0.721702
vn -0.092121 0.107387 0.989940
vn -0.108823 0.660353 0.743028
vn -0.276818 0.620340 0.733859
vn -0.589323 0.472031 0.655656
vn 0.022822 0.109435 0.993732
vn 0.176770 0.107121 0.978406
vn 0.206276 0.646958 0.734095
vn 0.026889 0.667996 0.743679
vn 0.380680 0.086783 0.920625
vn 0.699632 0.067214 0.711334
vn 0.637737 0.440886 0.631594
vn 0.402705 0.582086 0.706402
vn -0.275772 0.888255 0.367360
vn -0.690402 0.610181 0.388618
vn -0.101783 0.928206 0.357875
vn -0.093846 0.983683 0.153498
vn -0.278124 0.945683 0.168320
vn -0.723827 0.663062 0.190849
vn 0.024574 0.934936 0.353964
vn 0.194047 0.912239 0.360785
vn 0.179091 0.971216 0.157056
vn 0.022339 0.988403 0.150204
vn 0.394208 0.842116 0.368022
vn 0.711686 0.584738 0.389339
vn 0.734417 0.649361 0.197388
vn 0.386069 0.905878 0.174171
vn -0.275844 0.961019 -0.018757
vn -0.731848 0.681215 -0.018563
vn -0.091214 0.995672 -0.017803
vn -0.096400 0.970062 -0.222906
vn -0.278528 0.929757 -0.240776
vn -0.711061 0.653090 -0.260511
vn 0.021560 0.999615 -0.017458
vn 0.173531 0.984659 -0.018277
vn 0.181152 0.956921 -0.226904
vn 0.022104 0.975774 -0.217660
vn 0.379748 0.924860 -0.020629
vn 0.740749 0.671352 -0.024044
vn 0.723850 0.631003 -0.279062
vn 0.387048 0.887568 -0.249833
vn -0.275696 0.841714 -0.464231
vn -0.659855 0.575884 -0.482648
vn -0.108623 0.886521 -0.449758
vn -0.124719 0.632421 -0.764518
vn -0.288386 0.582489 -0.759960
vn -0.564417 0.436426 -0.700689
vn 0.022789 0.896924 -0.441597
vn 0.194784 0.871440 -0.450168
vn 0.202846 0.625420 -0.753461
vn 0.021139 0.647510 -0.761764
vn 0.389370 0.795698 -0.463957
vn 0.681526 0.543415 -0.490125
vn 0.611084 0.407758 -0.678461
vn 0.393196 0.552745 -0.734758
vn -0.315389 0.092429 -0.944450
vn -0.672637 0.065645 -0.737055
vn -0.122375 0.114666 -0.985838
vn -0.119643 0.000000 -0.992817
vn -0.322892 0.000000 -0.946436
vn -0.675765 0.000000 -0.737117
vn 0.014037 0.119147 -0.992777
vn 0.177092 0.116394 -0.977287
vn 0.170002 0.000000 -0.985444
vn 0.012557 0.000000 -0.999921
vn 0.384171 0.090512 -0.918814
vn 0.679450 0.063820 -0.730941
vn 0.682660 0.000000 -0.730736
vn 0.387965 0.000000 -0.921674
vn -0.315389 -0.092429 -0.944451
vn -0.672637 -0.065645 -0.737055
vn -0.122375 -0.114666 -0.985838
vn -0.124719 -0.632421 -0.764518
vn -0.288386 -0.582489 -0.759960
vn -0.564417 -0.436426 -0.700689
vn 0.014037 -0.119147 -0.992777
vn 0.177092 -0.116394 -0.977287
vn 0.202846 -0.625420 -0.753461
vn 0.021139 -0.647510 -0.761764
vn 0.384171 -0.090512 -0.918814
vn 0.679450 -0.063820 -0.730941
vn 0.611084 -0.407758 -0.678461
vn 0.393196 -0.552745 -0.734758
vn -0.275696 -0.841714 -0.464231
vn -0.659855 -0.575884 -0.482648
vn -0.108623 -0.886521 -0.449758
vn -0.096400 -0.970062 -0.222906
vn -0.278528 -0.929758 -0.240776
vn -0.711061 -0.653090 -0.260510
vn 0.022789 -0.896924 -0.441596
vn 0.194784 -0.871440 -0.450168
vn 0.181153 -0.956921 -0.226904
vn 0.022104 -0.975774 -0.217660
vn 0.389370 -0.795698 -0.463957
vn 0.681526 -0.543415 -0.490125
vn 0.723850 -0.631003 -0.279062
vn 0.387048 -0.887568 -0.249833
vn -0.275844 -0.961020 -0.018757
vn -0.731848 -0.681215 -0.018563
vn -0.091214 -0.995672 -0.017803
vn -0.093846 -0.983683 0.153498
vn -0.278124 -0.945683 0.168320
vn -0.723827 -0.663062 0.190849
vn 0.021559 -0.999615 -0.017458
vn 0.173531 -0.984659 -0.018277
vn 0.179091 -0.971216 0.157056
vn 0.022339 -0.988403 0.150204
vn 0.379748 -0.924860 -0.020629
vn 0.740749 -0.671352 -0.024044
vn 0.734417 -0.649361 0.197388
vn 0.386070 -0.905878 0.174171
vn -0.275772 -0.888255 0.367359
vn -0.690402 -0.610181 0.388618
vn -0.101783 -0.928206 0.357875
vn 0.024573 -0.934936 0.353964
vn 0.194047 -0.912239 0.360786
vn 0.394208 -0.842116 0.368022
vn 0.711686 -0.584738 0.389339
vn 0.871699 -0.083469 -0.482881
vn 0.957776 -0.109753 -0.265741
vn 0.874756 0.000000 -0.484564
vn 0.965136 0.000000 -0.261749
vn 0.992806 -0.117516 -0.022960
vn 0.975837 -0.112234 0.187471
vn 0.999748 0.000000 -0.022450
vn 0.983065 0.000000 0.183257
vn 0.914521 -0.089492 0.394516
vn 0.917173 0.000000 0.398490
vn 0.871699 0.083469 -0.482881
vn 0.957776 0.109753 -0.265741
vn 0.992806 0.117516 -0.022960
vn 0.975837 0.112234 0.187471
vn 0.914521 0.089492 0.394516
vn -0.893835 -0.079787 -0.441240
vn -0.970038 -0.099333 -0.221720
vn -0.976609 -0.000000 -0.215024
vn -0.897551 0.000000 -0.440910
vn -0.994637 -0.102562 -0.013326
vn -0.980715 -0.098925 0.168559
vn -0.986537 -0.000000 0.163537
vn -0.999921 -0.000000 -0.012529
vn -0.925682 -0.083155 0.369050
vn -0.928876 -0.000000 0.370390
vn -0.893835 0.079787 -0.441240
vn -0.970038 0.099332 -0.221720
vn -0.994637 0.102562 -0.013326
vn -0.980715 0.098925 0.168559
vn -0.925682 0.083155 0.369050
s 1
g pCube1
usemtl initialShadingGroup
f 1/1/1 127/2/2 129/3/3 128/4/4
f 127/2/2 2/5/5 45/6/6 129/3/3
f 129/3/3 45/6/6 6/7/7 50/19/8
f 128/4/4 129/3/3 50/19/8 5/8/9
f 2/5/5 46/9/10 130/10/11 45/6/6
f 46/9/10 3/11/12 47/12/13 130/10/11
f 130/10/11 47/12/13 7/13/14 51/20/15
f 45/6/6 130/10/11 51/20/15 6/7/7
f 3/11/12 48/14/16 131/15/17 47/12/13
f 48/14/16 4/16/18 49/17/19 131/15/17
f 131/15/17 49/17/19 8/18/20 52/21/21
f 47/12/13 131/15/17 52/21/21 7/13/14
f 5/8/9 50/19/8 132/22/22 53/23/23
f 50/19/8 6/7/7 54/24/24 132/22/22
f 132/22/22 54/24/24 10/25/25 55/26/26
f 53/23/23 132/22/22 55/26/26 9/27/27
f 6/7/7 51/20/15 133/28/28 54/24/24
f 51/20/15 7/13/14 56/29/29 133/28/28
f 133/28/28 56/29/29 11/30/30 57/31/31
f 54/24/24 133/28/28 57/31/31 10/25/25
f 7/13/14 52/21/21 134/32/32 56/29/29
f 52/21/21 8/18/20 58/33/33 134/32/32
f 134/32/32 58/33/33 12/34/34 59/35/35
f 56/29/29 134/32/32 59/35/35 11/30/30
f 9/27/27 55/26/26 135/36/36 60/37/37
f 55/26/26 10/25/25 61/38/38 135/36/36
f 135/36/36 61/38/38 14/39/39 62/40/40
f 60/37/37 135/36/36 62/40/40 13/41/41
f 10/25/25 57/31/31 136/42/42 61/38/38
f 57/31/31 11/30/30 63/43/43 136/42/42
f 136/42/42 63/43/43 15/44/44 64/45/45
f 61/38/38 136/42/42 64/45/45 14/39/39
f 11/30/30 59/35/35 137/46/46 63/43/43
f 59/35/35 12/34/34 65/47/47 137/46/46
f 137/46/46 65/47/47 16/48/48 66/49/49
f 63/43/43 137/46/46 66/49/49 15/44/44
f 13/41/41 62/40/40 138/50/50 67/51/51
f 62/40/40 14/39/39 68/52/52 138/50/50
f 138/50/50 68/52/52 18/53/53 69/54/54
f 67/51/51 138/50/50 69/54/54 17/55/55
f 14/39/39 64/45/45 139/56/56 68/52/52
f 64/45/45 15/44/44 70/57/57 139/56/56
f 139/56/56 70/57/57 19/58/58 71/59/59
f 68/52/52 139/56/56 71/59/59 18/53/53
f 15/44/44 66/49/49 140/60/60 70/57/57
f 66/49/49 16/48/48 72/61/61 140/60/60
f 140/60/60 72/61/61 20/62/62 73/63/63
f 70/57/57 140/60/60 73/63/63 19/58/58
f 17/55/55 69/54/54 141/64/64 74/65/65
f 69/54/54 18/53/53 75/66/66 141/64/64
f 141/64/64 75/66/66 22/67/67 76/68/68
f 74/65/65 141/64/64 76/68/68 21/69/69
f 18/53/53 71/59/59 142/70/70 75/66/66
f 71/59/59 19/58/58 77/71/71 142/70/70
f 142/70/70 77/71/71 23/72/72 78/73/73
f 75/66/66 142/70/70 78/73/73 22/67/67
f 19/58/58 73/63/63 143/74/74 77/71/71
f 73/63/63 20/62/62 79/75/75 143/74/74
f 143/74/74 79/75/75 24/76/76 80/77/77
f 77/71/71 143/74/74 80/77/77 23/72/72
f 21/69/69 76/68/68 144/78/78 81/79/79
f 76/68/68 22/67/67 82/80/80 144/78/78
f 144/78/78 82/80/80 26/81/81 83/82/82
f 81/79/79 144/78/78 83/82/82 25/83/83
f 22/67/67 78/73/73 145/84/84 82/80/80
f 78/73/73 23/72/72 84/85/85 145/84/84
f 145/84/84 84/85/85 27/86/86 85/87/87
f 82/80/80 145/84/84 85/87/87 26/81/81
f 23/72/72 80/77/77 146/88/88 84/85/85
f 80/77/77 24/76/76 86/89/89 146/88/88
f 146/88/88 86/89/89 28/90/90 87/91/91
f 84/85/85 146/88/88 87/91/91 27/86/86
f 25/83/83 83/82/82 147/92/92 88/93/93
f 83/82/82 26/81/81 89/94/94 147/92/92
f 147/92/92 89/94/94 30/95/95 90/96/96
f 88/93/93 147/92/92 90/96/96 29/97/97
f 26/81/81 85/87/87 148/98/98 89/94/94
f 85/87/87 27/86/86 91/99/99 148/98/98
f 148/98/98 91/99/99 31/100/100 92/101/101
f 89/94/94 148/98/98 92/101/101 30/95/95
f 27/86/86 87/91/91 149/102/102 91/99/99
f 87/91/91 28/90/90 93/103/103 149/102/102
f 149/102/102 93/103/103 32/104/104 94/105/105
f 91/99/99 149/102/102 94/105/105 31/100/100
f 29/97/97 90/96/96 150/106/106 95/107/107
f 90/96/96 30/95/95 96/108/108 150/106/106
f 150/106/106 96/108/108 34/109/109 97/110/110
f 95/107/107 150/106/106 97/110/110 33/111/111
f 30/95/95 92/101/101 151/112/112 96/108/108
f 92/101/101 31/100/100 98/113/113 151/112/112
f 151/112/112 98/113/113 35/114/114 99/115/115
f 96/108/108 151/112/112 99/115/115 34/109/109
f 31/100/100 94/105/105 152/116/116 98/113/113
f 94/105/105 32/104/104 100/117/117 152/116/116
f 152/116/116 100/117/117 36/118/118 101/119/119
f 98/113/113 152/116/116 101/119/119 35/114/114
f 33/111/111 97/110/110 153/120/120 102/121/121
f 97/110/110 34/109/109 103/122/122 153/120/120
f 153/120/120 103/122/122 38/123/123 104/124/124
f 102/121/121 153/120/120 104/124/124 37/125/125
f 34/109/109 99/115/115 154/126/126 103/122/122
f 99/115/115 35/114/114 105/127/127 154/126/126
f 154/126/126 105/127/127 39/128/128 106/129/129
f 103/122/122 154/126/126 106/129/129 38/123/123
f 35/114/114 101/119/119 155/130/130 105/127/127
f 101/119/119 36/118/118 107/131/131 155/130/130
f 155/130/130 107/131/131 40/132/132 108/133/133
f 105/127/127 155/130/130 108/133/133 39/128/128
f 37/125/125 104/124/124 156/134/134 109/135/135
f 104/124/124 38/123/123 110/136/136 156/134/134
f 156/134/134 110/136/136 2/137/5 127/138/2
f 109/135/135 156/134/134 127/138/2 1/139/1
f 38/123/123 106/129/129 157/140/137 110/136/136
f 106/129/129 39/128/128 111/141/138 157/140/137
f 157/140/137 111/141/138 3/142/12 46/143/10
f 110/136/136 157/140/137 46/143/10 2/137/5
f 39/128/128 108/133/133 158/144/139 111/141/138
f 108/133/133 40/132/132 112/145/140 158/144/139
f 158/144/139 112/145/140 4/146/18 48/147/16
f 111/141/138 158/144/139 48/147/16 3/142/12
f 36/148/118 100/149/117 159/150/141 113/151/142
f 100/149/117 32/152/104 93/153/103 159/150/141
f 159/150/141 93/153/103 28/162/90 115/163/143
f 113/151/142 159/150/141 115/163/143 41/154/144
f 40/155/132 107/156/131 160/157/145 114/158/146
f 107/156/131 36/148/118 113/151/142 160/157/145
f 160/157/145 113/151/142 41/154/144 116/164/147
f 114/158/146 160/157/145 116/164/147 42/159/148
f 4/16/18 112/160/140 161/161/149 49/17/19
f 112/160/140 40/155/132 114/158/146 161/161/149
f 161/161/149 114/158/146 42/159/148 117/165/150
f 49/17/19 161/161/149 117/165/150 8/18/20
f 41/154/144 115/163/143 162/166/151 118/167/152
f 115/163/143 28/162/90 86/168/89 162/166/151
f 162/166/151 86/168/89 24/169/76 79/170/75
f 118/167/152 162/166/151 79/170/75 20/171/62
f 42/159/148 116/164/147 163/172/153 119/173/154
f 116/164/147 41/154/144 118/167/152 163/172/153
f 163/172/153 118/167/152 20/171/62 72/174/61
f 119/173/154 163/172/153 72/174/61 16/175/48
f 8/18/20 117/165/150 164/176/155 58/33/33
f 117/165/150 42/159/148 119/173/154 164/176/155
f 164/176/155 119/173/154 16/175/48 65/177/47
f 58/33/33 164/176/155 65/177/47 12/34/34
f 29/178/97 95/179/107 165/180/156 88/181/93
f 95/179/107 33/182/111 120/183/157 165/180/156
f 165/180/156 120/183/157 43/184/158 122/192/159
f 88/181/93 165/180/156 122/192/159 25/193/83
f 33/182/111 102/185/121 166/186/160 120/183/157
f 102/185/121 37/187/125 121/188/161 166/186/160
f 166/186/160 121/188/161 44/189/162 123/194/163
f 120/183/157 166/186/160 123/194/163 43/184/158
f 37/187/125 109/190/135 167/191/164 121/188/161
f 109/190/135 1/1/1 128/4/4 167/191/164
f 167/191/164 128/4/4 5/8/9 124/195/165
f 121/188/161 167/191/164 124/195/165 44/189/162
f 25/193/83 122/192/159 168/196/166 81/197/79
f 122/192/159 43/184/158 125/198/167 168/196/166
f 168/196/166 125/198/167 17/199/55 74/200/65
f 81/197/79 168/196/166 74/200/65 21/201/69
f 43/184/158 123/194/163 169/202/168 125/198/167
f 123/194/163 44/189/162 126/203/169 169/202/168
f 169/202/168 126/203/169 13/204/41 67/205/51
f 125/198/167 169/202/168 67/205/51 17/199/55
f 44/189/162 124/195/165 170/206/170 126/203/169
f 124/195/165 5/8/9 53/23/23 170/206/170
f 170/206/170 53/23/23 9/27/27 60/207/37
f 126/203/169 170/206/170 60/207/37 13/204/41
