# This file uses centimeters as units for non-parametric coordinates.

mtllib Grenade.mtl
g default
v 0.213864 0.035742 -0.155382
v 0.081689 0.035742 -0.251413
v -0.081689 0.035742 -0.251413
v -0.213864 0.035742 -0.155381
v -0.264351 0.035742 0.000000
v -0.213864 0.035742 0.155382
v -0.081689 0.035742 0.251413
v 0.081689 0.035742 0.251413
v 0.213864 0.035742 0.155381
v 0.264351 0.035742 0.000000
v 0.213864 2.435352 -0.155382
v 0.081689 2.435352 -0.251413
v -0.081689 2.435352 -0.251413
v -0.213864 2.435352 -0.155381
v -0.264351 2.435352 0.000000
v -0.213864 2.435352 0.155382
v -0.081689 2.435352 0.251413
v 0.081689 2.435352 0.251413
v 0.213864 2.435352 0.155381
v 0.264351 2.435352 0.000000
v 0.000000 0.035742 0.000000
vt 0.674598 0.672214
vt 0.658662 0.660636
vt 0.638964 0.660636
vt 0.623028 0.672214
vt 0.616941 0.690948
vt 0.623028 0.709682
vt 0.638964 0.721260
vt 0.658662 0.721260
vt 0.674598 0.709682
vt 0.680685 0.690948
vt 0.623315 0.722820
vt 0.628415 0.722820
vt 0.633514 0.722820
vt 0.638614 0.722820
vt 0.643713 0.722820
vt 0.648813 0.722820
vt 0.653912 0.722820
vt 0.659012 0.722820
vt 0.664111 0.722820
vt 0.669211 0.722820
vt 0.674310 0.722820
vt 0.623315 0.799504
vt 0.628415 0.799504
vt 0.633514 0.799504
vt 0.638614 0.799504
vt 0.643713 0.799504
vt 0.648813 0.799504
vt 0.653912 0.799504
vt 0.659012 0.799504
vt 0.664111 0.799504
vt 0.669211 0.799504
vt 0.674310 0.799504
vt 0.648813 0.689673
vn 0.587785 0.000000 -0.809017
vn 0.587785 0.000000 -0.809017
vn 0.587785 0.000000 -0.809017
vn 0.587785 0.000000 -0.809017
vn -0.000000 0.000000 -1.000000
vn -0.000000 0.000000 -1.000000
vn -0.000000 0.000000 -1.000000
vn -0.000000 0.000000 -1.000000
vn -0.587785 0.000000 -0.809017
vn -0.587785 0.000000 -0.809017
vn -0.587785 0.000000 -0.809017
vn -0.587785 0.000000 -0.809017
vn -0.951057 0.000000 -0.309017
vn -0.951057 0.000000 -0.309017
vn -0.951057 0.000000 -0.309017
vn -0.951057 0.000000 -0.309017
vn -0.951057 0.000000 0.309017
vn -0.951057 0.000000 0.309017
vn -0.951057 0.000000 0.309017
vn -0.951057 0.000000 0.309017
vn -0.587785 0.000000 0.809017
vn -0.587785 0.000000 0.809017
vn -0.587785 0.000000 0.809017
vn -0.587785 0.000000 0.809017
vn 0.000000 0.000000 1.000000
vn 0.000000 0.000000 1.000000
vn 0.000000 0.000000 1.000000
vn 0.000000 0.000000 1.000000
vn 0.587785 0.000000 0.809017
vn 0.587785 0.000000 0.809017
vn 0.587785 0.000000 0.809017
vn 0.587785 0.000000 0.809017
vn 0.951057 0.000000 0.309017
vn 0.951057 0.000000 0.309017
vn 0.951057 0.000000 0.309017
vn 0.951057 0.000000 0.309017
vn 0.951057 0.000000 -0.309017
vn 0.951057 0.000000 -0.309017
vn 0.951057 0.000000 -0.309017
vn 0.951057 0.000000 -0.309017
vn 0.000000 -1.000000 0.000000
vn 0.000000 -1.000000 0.000000
vn 0.000000 -1.000000 -0.000000
vn 0.000000 -1.000000 0.000000
vn 0.000000 -1.000000 0.000000
vn 0.000000 -1.000000 0.000000
vn 0.000000 -1.000000 -0.000000
vn 0.000000 -1.000000 -0.000000
vn 0.000000 -1.000000 0.000000
vn 0.000000 -1.000000 0.000000
vn 0.000000 -1.000000 0.000000
s off
g pCylinder1
usemtl blinn1SG
f 1/11/1 2/12/2 12/23/3 11/22/4
f 2/12/5 3/13/6 13/24/7 12/23/8
f 3/13/9 4/14/10 14/25/11 13/24/12
f 4/14/13 5/15/14 15/26/15 14/25/16
f 5/15/17 6/16/18 16/27/19 15/26/20
f 6/16/21 7/17/22 17/28/23 16/27/24
f 7/17/25 8/18/26 18/29/27 17/28/28
f 8/18/29 9/19/30 19/30/31 18/29/32
f 9/19/33 10/20/34 20/31/35 19/30/36
f 10/20/37 1/21/38 11/32/39 20/31/40
s 1
f 2/2/41 1/1/42 21/33/43
f 3/3/44 2/2/41 21/33/43
f 4/4/45 3/3/44 21/33/43
f 5/5/46 4/4/45 21/33/43
f 6/6/47 5/5/46 21/33/43
f 7/7/48 6/6/47 21/33/43
f 8/8/49 7/7/48 21/33/43
f 9/9/50 8/8/49 21/33/43
f 10/10/51 9/9/50 21/33/43
f 1/1/42 10/10/51 21/33/43
g default
v 0.628315 2.320556 -0.456498
v 0.239995 2.320556 -0.738629
v -0.239995 2.320556 -0.738629
v -0.628315 2.320556 -0.456498
v -0.776640 2.320556 0.000000
v -0.628315 2.320556 0.456498
v -0.239995 2.320556 0.738629
v 0.239995 2.320556 0.738629
v 0.628315 2.320556 0.456498
v 0.776640 2.320556 0.000000
v 0.744206 3.873836 -0.540697
v 0.284261 3.873836 -0.874867
v -0.284262 3.873836 -0.874867
v -0.744206 3.873836 -0.540697
v -0.919889 3.873836 0.000000
v -0.744206 3.873836 0.540697
v -0.284261 3.873836 0.874867
v 0.284261 3.873836 0.874867
v 0.744206 3.873836 0.540697
v 0.919889 3.873836 0.000000
v 0.000000 2.543378 0.000000
v 0.000000 3.873836 0.000000
vt 0.173676 0.701247
vt 0.163959 0.694187
vt 0.151948 0.694187
vt 0.142231 0.701247
vt 0.138519 0.712670
vt 0.142231 0.724093
vt 0.151948 0.731153
vt 0.163959 0.731153
vt 0.173676 0.724093
vt 0.177387 0.712670
vt 0.142406 0.732104
vt 0.145515 0.732104
vt 0.148625 0.732104
vt 0.151734 0.732104
vt 0.154844 0.732104
vt 0.157953 0.732104
vt 0.161063 0.732104
vt 0.164172 0.732104
vt 0.167281 0.732104
vt 0.170391 0.732104
vt 0.173500 0.732104
vt 0.142406 0.778862
vt 0.145515 0.778862
vt 0.148625 0.778862
vt 0.151734 0.778862
vt 0.154844 0.778862
vt 0.157953 0.778862
vt 0.161063 0.778862
vt 0.164172 0.778862
vt 0.167281 0.778862
vt 0.170391 0.778862
vt 0.173500 0.778862
vt 0.173676 0.786757
vt 0.163959 0.779697
vt 0.151948 0.779697
vt 0.142231 0.786757
vt 0.138519 0.798180
vt 0.142231 0.809603
vt 0.151948 0.816663
vt 0.163959 0.816663
vt 0.173676 0.809603
vt 0.177387 0.798180
vt 0.157953 0.711892
vt 0.157953 0.797402
vt 0.177387 0.798180
vt 0.157953 0.797402
vt 0.157953 0.797402
vt 0.157953 0.797402
vt 0.157953 0.797402
vt 0.157953 0.797402
vt 0.157953 0.797402
vt 0.157953 0.797402
vt 0.157953 0.797402
vt 0.157953 0.797402
vt 0.173676 0.786757
vt 0.163959 0.779697
vt 0.151948 0.779697
vt 0.142231 0.786757
vt 0.138519 0.798180
vt 0.142231 0.809603
vt 0.151948 0.816663
vt 0.163959 0.816663
vt 0.173676 0.809603
vn 0.585537 -0.087374 -0.805923
vn 0.585537 -0.087374 -0.805923
vn 0.585537 -0.087374 -0.805923
vn 0.585537 -0.087374 -0.805923
vn 0.000000 -0.087375 -0.996176
vn 0.000000 -0.087375 -0.996176
vn 0.000000 -0.087375 -0.996176
vn 0.000000 -0.087375 -0.996176
vn -0.585537 -0.087374 -0.805923
vn -0.585537 -0.087374 -0.805923
vn -0.585537 -0.087374 -0.805923
vn -0.585537 -0.087374 -0.805923
vn -0.947419 -0.087374 -0.307835
vn -0.947419 -0.087374 -0.307835
vn -0.947419 -0.087374 -0.307835
vn -0.947419 -0.087374 -0.307835
vn -0.947419 -0.087374 0.307835
vn -0.947419 -0.087374 0.307835
vn -0.947419 -0.087374 0.307835
vn -0.947419 -0.087374 0.307835
vn -0.585537 -0.087374 0.805923
vn -0.585537 -0.087374 0.805923
vn -0.585537 -0.087374 0.805923
vn -0.585537 -0.087374 0.805923
vn 0.000000 -0.087375 0.996176
vn 0.000000 -0.087375 0.996176
vn 0.000000 -0.087375 0.996176
vn 0.000000 -0.087375 0.996176
vn 0.585537 -0.087374 0.805923
vn 0.585537 -0.087374 0.805923
vn 0.585537 -0.087374 0.805923
vn 0.585537 -0.087374 0.805923
vn 0.947419 -0.087374 0.307835
vn 0.947419 -0.087374 0.307835
vn 0.947419 -0.087374 0.307835
vn 0.947419 -0.087374 0.307835
vn 0.947419 -0.087374 -0.307835
vn 0.947419 -0.087374 -0.307835
vn 0.947419 -0.087374 -0.307835
vn 0.947419 -0.087374 -0.307835
vn -0.085220 -0.961221 0.262282
vn -0.223110 -0.961221 0.162099
vn -0.000000 -1.000000 -0.000000
vn 0.085221 -0.961221 0.262282
vn 0.223110 -0.961221 0.162099
vn 0.275779 -0.961221 0.000000
vn 0.223110 -0.961221 -0.162099
vn 0.085220 -0.961221 -0.262282
vn -0.085220 -0.961221 -0.262282
vn -0.223110 -0.961221 -0.162099
vn -0.275779 -0.961221 0.000000
vn 0.000000 1.000000 0.000000
vn 0.000000 1.000000 0.000000
vn 0.000000 1.000000 0.000000
vn 0.000000 1.000000 0.000000
vn 0.000000 1.000000 0.000000
vn 0.000000 1.000000 0.000000
vn 0.000000 1.000000 0.000000
vn 0.000000 1.000000 0.000000
vn 0.000000 1.000000 0.000000
vn 0.000000 1.000000 0.000000
vn 0.000000 1.000000 0.000000
s off
g pCylinder2
usemtl blinn1SG
f 22/44/52 23/45/53 33/56/54 32/55/55
f 23/45/56 24/46/57 34/57/58 33/56/59
f 24/46/60 25/47/61 35/58/62 34/57/63
f 25/47/64 26/48/65 36/59/66 35/58/67
f 26/48/68 27/49/69 37/60/70 36/59/71
f 27/49/72 28/50/73 38/61/74 37/60/75
f 28/50/76 29/51/77 39/62/78 38/61/79
f 29/51/80 30/52/81 40/63/82 39/62/83
f 30/52/84 31/53/85 41/64/86 40/63/87
f 31/53/88 22/54/89 32/65/90 41/64/91
s 1
f 23/35/92 22/34/93 42/76/94
f 24/36/95 23/35/92 42/76/94
f 25/37/96 24/36/95 42/76/94
f 26/38/97 25/37/96 42/76/94
f 27/39/98 26/38/97 42/76/94
f 28/40/99 27/39/98 42/76/94
f 29/41/100 28/40/99 42/76/94
f 30/42/101 29/41/100 42/76/94
f 31/43/102 30/42/101 42/76/94
f 22/34/93 31/43/102 42/76/94
s 2
f 32/74/103 33/95/104 43/86/105
f 33/73/104 34/94/106 43/85/105
f 34/72/106 35/93/107 43/84/105
f 35/71/107 36/92/108 43/83/105
f 36/70/108 37/91/109 43/82/105
f 37/69/109 38/90/110 43/81/105
f 38/68/110 39/89/111 43/80/105
f 39/67/111 40/88/112 43/79/105
f 40/66/112 41/78/113 43/77/105
f 41/75/113 32/96/103 43/87/105
