# This file uses centimeters as units for non-parametric coordinates.

mtllib pickaxe.mtl
g default
v 0.048290 0.012772 -0.148622
v -0.126425 0.012772 -0.091853
v -0.126425 0.012772 0.091853
v 0.048290 0.012772 0.148622
v 0.156270 0.012772 0.000000
v 0.048290 3.468822 -0.148622
v -0.126425 3.468822 -0.091853
v -0.126425 3.468822 0.091853
v 0.048290 3.468822 0.148622
v 0.156270 3.468822 0.000000
v 0.000000 0.012772 0.000000
v 0.000000 3.468822 0.000000
vt 0.790931 0.364530
vt 0.737106 0.382019
vt 0.737106 0.438613
vt 0.790931 0.456101
vt 0.824196 0.410316
vt 0.737540 0.458458
vt 0.752946 0.458458
vt 0.768351 0.458458
vt 0.783757 0.458458
vt 0.799162 0.458458
vt 0.814567 0.458458
vt 0.737540 0.574288
vt 0.752946 0.574288
vt 0.768351 0.574288
vt 0.783757 0.574288
vt 0.799162 0.574288
vt 0.814567 0.574288
vt 0.790931 0.576354
vt 0.737106 0.593843
vt 0.737106 0.650437
vt 0.790931 0.667926
vt 0.824196 0.622140
vt 0.776054 0.408390
vt 0.776054 0.620214
vn -0.309017 0.000000 -0.951057
vn -0.309017 0.000000 -0.951057
vn -0.309017 0.000000 -0.951057
vn -0.309017 0.000000 -0.951057
vn -1.000000 0.000000 -0.000000
vn -1.000000 0.000000 -0.000000
vn -1.000000 0.000000 -0.000000
vn -1.000000 0.000000 -0.000000
vn -0.309017 0.000000 0.951056
vn -0.309017 0.000000 0.951056
vn -0.309017 0.000000 0.951056
vn -0.309017 0.000000 0.951056
vn 0.809017 0.000000 0.587785
vn 0.809017 0.000000 0.587785
vn 0.809017 0.000000 0.587785
vn 0.809017 0.000000 0.587785
vn 0.809017 0.000000 -0.587785
vn 0.809017 0.000000 -0.587785
vn 0.809017 0.000000 -0.587785
vn 0.809017 0.000000 -0.587785
vn 0.000000 -1.000000 0.000000
vn 0.000000 -1.000000 0.000000
vn 0.000000 -1.000000 0.000000
vn 0.000000 -1.000000 0.000000
vn 0.000000 -1.000000 0.000000
vn 0.000000 -1.000000 0.000000
vn 0.000000 1.000000 0.000000
vn 0.000000 1.000000 0.000000
vn 0.000000 1.000000 -0.000000
vn 0.000000 1.000000 0.000000
vn 0.000000 1.000000 -0.000000
vn 0.000000 1.000000 -0.000000
s off
g pCylinder1
usemtl lambert2SG
f 1/6/1 2/7/2 7/13/3 6/12/4
f 2/7/5 3/8/6 8/14/7 7/13/8
f 3/8/9 4/9/10 9/15/11 8/14/12
f 4/9/13 5/10/14 10/16/15 9/15/16
f 5/10/17 1/11/18 6/17/19 10/16/20
s 1
f 2/2/21 1/1/22 11/23/23
f 3/3/24 2/2/21 11/23/23
f 4/4/25 3/3/24 11/23/23
f 5/5/26 4/4/25 11/23/23
f 1/1/22 5/5/26 11/23/23
s 2
f 6/21/27 7/20/28 12/24/29
f 7/20/28 8/19/30 12/24/29
f 8/19/30 9/18/31 12/24/29
f 9/18/31 10/22/32 12/24/29
f 10/22/32 6/21/27 12/24/29
g default
v 1.713035 2.553357 0.200642
v 1.334802 2.827053 0.200642
v 0.914075 3.028954 0.200642
v 0.464325 3.152675 0.200642
v -0.000059 3.194335 0.200642
v -0.464234 3.152679 0.200642
v -0.913379 3.029108 0.200642
v -1.333164 2.827644 0.200642
v -1.710209 2.554789 0.200642
v 1.713035 2.553357 -0.200642
v 1.334802 2.827053 -0.200642
v 0.914075 3.028954 -0.200642
v 0.464325 3.152675 -0.200642
v -0.000059 3.194335 -0.200642
v -0.464234 3.152679 -0.200642
v -0.913379 3.029108 -0.200642
v -1.333164 2.827644 -0.200642
v -1.710209 2.554789 -0.200642
v 1.908543 2.369377 -0.200642
v 1.533698 3.161093 -0.200642
v 1.079798 3.471910 -0.200642
v 0.108538 3.665366 -0.200642
v -0.000118 3.857591 -0.200642
v -0.108458 3.665369 -0.200642
v -1.079050 3.472085 -0.200642
v -1.519239 3.140344 -0.200642
v -1.861902 2.413909 -0.200642
v 1.908543 2.369377 0.200642
v 1.533698 3.161093 0.200642
v 1.079798 3.471910 0.200642
v 0.108538 3.665366 0.200642
v -0.000118 3.857591 0.200642
v -0.108458 3.665369 0.200642
v -1.079050 3.472085 0.200642
v -1.519239 3.140344 0.200642
v -1.861902 2.413909 0.200642
vt 0.167198 0.353424
vt 0.173824 0.353424
vt 0.180449 0.353424
vt 0.187075 0.353424
vt 0.193700 0.353424
vt 0.200325 0.353424
vt 0.206951 0.353424
vt 0.213576 0.353424
vt 0.220201 0.353424
vt 0.167198 0.406428
vt 0.173824 0.406428
vt 0.180449 0.406428
vt 0.187075 0.406428
vt 0.193700 0.406428
vt 0.200325 0.406428
vt 0.206951 0.406428
vt 0.213576 0.406428
vt 0.220201 0.406428
vt 0.167198 0.459431
vt 0.173824 0.459431
vt 0.180449 0.459431
vt 0.187075 0.459431
vt 0.193700 0.459431
vt 0.200325 0.459431
vt 0.206951 0.459431
vt 0.213576 0.459431
vt 0.220201 0.459431
vt 0.167198 0.512434
vt 0.173824 0.512434
vt 0.180449 0.512434
vt 0.187075 0.512434
vt 0.193700 0.512434
vt 0.200325 0.512434
vt 0.206951 0.512434
vt 0.213576 0.512434
vt 0.220201 0.512434
vt 0.167198 0.565437
vt 0.173824 0.565437
vt 0.180449 0.565437
vt 0.187075 0.565437
vt 0.193700 0.565437
vt 0.200325 0.565437
vt 0.206951 0.565437
vt 0.213576 0.565437
vt 0.220201 0.565437
vt 0.273204 0.353424
vt 0.273204 0.406428
vt 0.114196 0.353424
vt 0.114196 0.406428
vn -0.586234 -0.810142 -0.000000
vn -0.511504 -0.859281 -0.000000
vn -0.511504 -0.859281 -0.000000
vn -0.586234 -0.810142 -0.000000
vn -0.350362 -0.936615 -0.000000
vn -0.350362 -0.936615 -0.000000
vn -0.178027 -0.984026 -0.000000
vn -0.178027 -0.984026 -0.000000
vn -0.000004 -1.000000 -0.000000
vn -0.000004 -1.000000 -0.000000
vn 0.178019 -0.984027 -0.000000
vn 0.178019 -0.984027 -0.000000
vn 0.350354 -0.936617 -0.000000
vn 0.350354 -0.936617 -0.000000
vn 0.511497 -0.859285 -0.000000
vn 0.511497 -0.859285 -0.000000
vn 0.586260 -0.810123 -0.000000
vn 0.586260 -0.810123 -0.000000
vn 0.000000 0.000000 -1.000000
vn 0.000000 0.000000 -1.000000
vn 0.000000 0.000000 -1.000000
vn 0.000000 0.000000 -1.000000
vn 0.000000 0.000000 -1.000000
vn 0.000000 0.000000 -1.000000
vn 0.000000 0.000000 -1.000000
vn 0.000000 0.000000 -1.000000
vn 0.000000 0.000000 -1.000000
vn 0.000000 0.000000 -1.000000
vn 0.000000 0.000000 -1.000000
vn 0.000000 -0.000000 -1.000000
vn 0.000000 0.000000 -1.000000
vn 0.000000 0.000000 -1.000000
vn 0.000000 0.000000 -1.000000
vn 0.000000 0.000000 -1.000000
vn 0.000000 0.000000 -1.000000
vn 0.000000 0.000000 -1.000000
vn 0.903817 0.427919 0.000000
vn 0.799358 0.600856 0.000000
vn 0.799358 0.600856 0.000000
vn 0.903817 0.427919 0.000000
vn 0.333570 0.942725 0.000000
vn 0.333570 0.942725 0.000000
vn 0.336334 0.941743 0.000000
vn 0.336334 0.941743 0.000000
vn 0.000012 1.000000 0.000000
vn 0.000012 1.000000 0.000000
vn -0.336471 0.941694 0.000000
vn -0.336471 0.941694 0.000000
vn -0.348782 0.937204 0.000000
vn -0.348782 0.937204 0.000000
vn -0.803914 0.594746 0.000000
vn -0.803914 0.594746 0.000000
vn -0.904429 0.426624 -0.000000
vn -0.904429 0.426624 -0.000000
vn -0.000000 -0.000000 1.000000
vn -0.000000 -0.000000 1.000000
vn -0.000000 -0.000000 1.000000
vn -0.000000 -0.000000 1.000000
vn -0.000000 -0.000000 1.000000
vn -0.000000 -0.000000 1.000000
vn -0.000000 0.000000 1.000000
vn -0.000000 0.000000 1.000000
vn -0.000000 0.000000 1.000000
vn -0.000000 0.000000 1.000000
vn -0.000000 -0.000000 1.000000
vn -0.000000 -0.000000 1.000000
vn -0.000000 -0.000000 1.000000
vn -0.000000 -0.000000 1.000000
vn -0.000000 -0.000000 1.000000
vn -0.000000 -0.000000 1.000000
vn -0.000000 -0.000000 1.000000
vn -0.000000 -0.000000 1.000000
vn 0.680507 -0.732741 -0.000000
vn 0.680507 -0.732741 -0.000000
vn 0.680507 -0.732741 -0.000000
vn 0.680507 -0.732741 -0.000000
vn -0.685311 -0.728251 -0.000000
vn -0.685311 -0.728251 -0.000000
vn -0.685311 -0.728251 -0.000000
vn -0.685311 -0.728251 -0.000000
s 1
g pCube1
usemtl lambert2SG
f 13/25/33 14/26/34 23/35/35 22/34/36
f 14/26/34 15/27/37 24/36/38 23/35/35
f 15/27/37 16/28/39 25/37/40 24/36/38
f 16/28/39 17/29/41 26/38/42 25/37/40
f 17/29/41 18/30/43 27/39/44 26/38/42
f 18/30/43 19/31/45 28/40/46 27/39/44
f 19/31/45 20/32/47 29/41/48 28/40/46
f 20/32/47 21/33/49 30/42/50 29/41/48
s 2
f 22/34/51 23/35/52 32/44/53 31/43/54
f 23/35/52 24/36/55 33/45/56 32/44/53
f 24/36/55 25/37/57 34/46/58 33/45/56
f 25/37/57 26/38/59 35/47/60 34/46/58
f 26/38/59 27/39/61 36/48/62 35/47/60
f 27/39/61 28/40/63 37/49/64 36/48/62
f 28/40/63 29/41/65 38/50/66 37/49/64
f 29/41/65 30/42/67 39/51/68 38/50/66
s 3
f 31/43/69 32/44/70 41/53/71 40/52/72
f 32/44/70 33/45/73 42/54/74 41/53/71
f 33/45/73 34/46/75 43/55/76 42/54/74
f 34/46/75 35/47/77 44/56/78 43/55/76
f 35/47/77 36/48/79 45/57/80 44/56/78
f 36/48/79 37/49/81 46/58/82 45/57/80
f 37/49/81 38/50/83 47/59/84 46/58/82
f 38/50/83 39/51/85 48/60/86 47/59/84
s 4
f 40/52/87 41/53/88 14/62/89 13/61/90
f 41/53/88 42/54/91 15/63/92 14/62/89
f 42/54/91 43/55/93 16/64/94 15/63/92
f 43/55/93 44/56/95 17/65/96 16/64/94
f 44/56/95 45/57/97 18/66/98 17/65/96
f 45/57/97 46/58/99 19/67/100 18/66/98
f 46/58/99 47/59/101 20/68/102 19/67/100
f 47/59/101 48/60/103 21/69/104 20/68/102
s off
f 21/33/105 48/70/106 39/71/107 30/42/108
f 40/72/109 13/25/110 22/34/111 31/73/112
