# This file uses centimeters as units for non-parametric coordinates.

mtllib Rock.mtl
g default
v -0.269479 0.010932 0.345433
v 0.304161 0.010128 0.334327
v -0.236378 0.206076 0.390662
v 0.357584 0.203364 0.353179
v -0.143485 0.401220 0.188150
v 0.179429 0.400416 0.177044
v -0.204010 0.400416 -0.137854
v 0.135291 0.396399 -0.166905
v -0.426590 0.203364 -0.220913
v 0.193954 0.189805 -0.318960
v -0.305730 0.010128 -0.295138
v 0.233226 0.006111 -0.324188
v 0.415364 0.078818 0.424566
v 0.090090 0.206076 0.478896
v -0.197393 0.331525 0.297888
v 0.278265 0.329717 0.272900
v 0.015015 0.425612 0.217748
v -0.212408 0.425612 0.016028
v 0.203189 0.423805 0.000969
v -0.024233 0.423805 -0.200751
v -0.333574 0.329717 -0.184723
v 0.178956 0.320678 -0.250087
v -0.145805 0.195228 -0.376913
v -0.414839 0.078818 -0.336389
v 0.257382 0.069779 -0.401753
v -0.026667 -0.015269 -0.453527
v -0.394784 -0.013461 0.016028
v 0.382726 -0.015269 0.000969
v 0.376978 0.195228 0.005815
v -0.432693 0.206076 0.096168
v 0.014609 -0.013461 0.470525
v -0.334897 0.080626 0.449554
v 0.060060 0.080626 0.571415
v 0.060060 0.331525 0.369194
v 0.000000 0.456975 0.000000
v -0.096933 0.324294 -0.301205
v -0.098555 0.073394 -0.503426
v -0.001622 -0.044824 0.000000
v 0.454913 0.073394 0.003877
v 0.310959 0.324294 0.003877
v -0.493408 0.080626 0.064112
v -0.347832 0.331525 0.064112
vt 0.375000 0.000000
vt 0.500000 0.000000
vt 0.500000 0.062500
vt 0.375000 0.062500
vt 0.625000 0.000000
vt 0.625000 0.062500
vt 0.625000 0.125000
vt 0.500000 0.125000
vt 0.375000 0.125000
vt 0.500000 0.187500
vt 0.375000 0.187500
vt 0.625000 0.187500
vt 0.625000 0.250000
vt 0.500000 0.265625
vt 0.375000 0.250000
vt 0.500000 0.375000
vt 0.375000 0.375000
vt 0.625000 0.375000
vt 0.625000 0.500000
vt 0.500000 0.484375
vt 0.375000 0.500000
vt 0.500000 0.562500
vt 0.375000 0.562500
vt 0.625000 0.562500
vt 0.625000 0.625000
vt 0.500000 0.625000
vt 0.375000 0.625000
vt 0.500000 0.687500
vt 0.375000 0.687500
vt 0.625000 0.687500
vt 0.625000 0.750000
vt 0.500000 0.765625
vt 0.375000 0.750000
vt 0.500000 0.875000
vt 0.375000 0.875000
vt 0.625000 0.875000
vt 0.625000 1.000000
vt 0.500000 1.000000
vt 0.375000 1.000000
vt 0.750000 0.000000
vt 0.750000 0.062500
vt 0.875000 0.000000
vt 0.875000 0.062500
vt 0.875000 0.125000
vt 0.750000 0.125000
vt 0.750000 0.187500
vt 0.875000 0.187500
vt 0.875000 0.250000
vt 0.750000 0.250000
vt 0.125000 0.000000
vt 0.250000 0.000000
vt 0.250000 0.062500
vt 0.125000 0.062500
vt 0.250000 0.125000
vt 0.125000 0.125000
vt 0.250000 0.187500
vt 0.125000 0.187500
vt 0.250000 0.250000
vt 0.125000 0.250000
vn -0.229993 -0.949784 0.212163
vn -0.009152 -0.964169 0.265132
vn 0.039557 -0.098805 0.994320
vn -0.675277 -0.051668 0.735753
vn 0.233261 -0.955485 0.180656
vn 0.792554 -0.108737 0.600028
vn 0.678904 0.600828 0.422014
vn 0.074711 0.616973 0.783430
vn -0.462014 0.602679 0.650631
vn 0.036732 0.740223 0.671358
vn -0.434272 0.702233 0.564160
vn 0.593013 0.715017 0.370252
vn 0.337869 0.909715 0.241378
vn 0.005985 0.940864 0.338732
vn -0.276418 0.904507 0.324748
vn 0.008126 0.999907 -0.010904
vn -0.347451 0.936184 0.053260
vn 0.419827 0.904778 -0.071564
vn 0.348970 0.842523 -0.410336
vn -0.002290 0.901123 -0.433558
vn -0.321548 0.902551 -0.286371
vn -0.089904 0.614623 -0.783681
vn -0.587348 0.697525 -0.410465
vn 0.522761 0.538951 -0.660494
vn 0.482416 0.594813 -0.643019
vn -0.147238 0.614056 -0.775407
vn -0.773901 0.503786 -0.383766
vn -0.117747 0.171611 -0.978103
vn -0.762385 -0.046593 -0.645444
vn 0.610899 0.261835 -0.747158
vn 0.261528 -0.937394 -0.229992
vn 0.007169 -0.957635 -0.287895
vn -0.247573 -0.949591 -0.192315
vn -0.002672 -0.999995 0.001872
vn -0.279707 -0.960048 0.008510
vn 0.289158 -0.956843 -0.028962
vn 0.986650 -0.008315 -0.162643
vn 0.837429 0.512923 -0.188741
vn 0.801045 0.572640 -0.174386
vn -0.962955 -0.232333 0.136892
vn -0.829558 0.509303 0.229008
vn -0.693192 0.695071 0.190685
s 1
g pCube1
usemtl initialShadingGroup
f 1/1/1 31/2/2 33/3/3 32/4/4
f 31/2/2 2/5/5 13/6/6 33/3/3
f 33/3/3 13/6/6 4/7/7 14/8/8
f 32/4/4 33/3/3 14/8/8 3/9/9
f 3/9/9 14/8/8 34/10/10 15/11/11
f 14/8/8 4/7/7 16/12/12 34/10/10
f 34/10/10 16/12/12 6/13/13 17/14/14
f 15/11/11 34/10/10 17/14/14 5/15/15
f 5/15/15 17/14/14 35/16/16 18/17/17
f 17/14/14 6/13/13 19/18/18 35/16/16
f 35/16/16 19/18/18 8/19/19 20/20/20
f 18/17/17 35/16/16 20/20/20 7/21/21
f 7/21/21 20/20/20 36/22/22 21/23/23
f 20/20/20 8/19/19 22/24/24 36/22/22
f 36/22/22 22/24/24 10/25/25 23/26/26
f 21/23/23 36/22/22 23/26/26 9/27/27
f 9/27/27 23/26/26 37/28/28 24/29/29
f 23/26/26 10/25/25 25/30/30 37/28/28
f 37/28/28 25/30/30 12/31/31 26/32/32
f 24/29/29 37/28/28 26/32/32 11/33/33
f 11/33/33 26/32/32 38/34/34 27/35/35
f 26/32/32 12/31/31 28/36/36 38/34/34
f 38/34/34 28/36/36 2/37/5 31/38/2
f 27/35/35 38/34/34 31/38/2 1/39/1
f 2/5/5 28/40/36 39/41/37 13/6/6
f 28/40/36 12/42/31 25/43/30 39/41/37
f 39/41/37 25/43/30 10/44/25 29/45/38
f 13/6/6 39/41/37 29/45/38 4/7/7
f 4/7/7 29/45/38 40/46/39 16/12/12
f 29/45/38 10/44/25 22/47/24 40/46/39
f 40/46/39 22/47/24 8/48/19 19/49/18
f 16/12/12 40/46/39 19/49/18 6/13/13
f 11/50/33 27/51/35 41/52/40 24/53/29
f 27/51/35 1/1/1 32/4/4 41/52/40
f 41/52/40 32/4/4 3/9/9 30/54/41
f 24/53/29 41/52/40 30/54/41 9/55/27
f 9/55/27 30/54/41 42/56/42 21/57/23
f 30/54/41 3/9/9 15/11/11 42/56/42
f 42/56/42 15/11/11 5/15/15 18/58/17
f 21/57/23 42/56/42 18/58/17 7/59/21
