# This file uses centimeters as units for non-parametric coordinates.

mtllib TurretHead.mtl
g default
v -0.298087 0.342669 0.500000
v 0.298087 0.342669 0.500000
v -0.894260 0.502580 0.500000
v -0.298087 0.502580 0.500000
v 0.298087 0.502580 0.500000
v 0.894260 0.502580 0.500000
v -0.298087 1.002580 0.500000
v 0.298087 1.002580 0.500000
v -0.298087 1.002580 -1.377320
v 0.298087 1.002580 -1.377320
v -0.894260 0.502580 -1.377320
v -0.298087 0.502580 -1.377320
v 0.298087 0.502580 -1.377320
v 0.894260 0.502580 -1.377320
v -0.298087 0.342669 -1.377320
v 0.298087 0.342669 -1.377320
v -0.734766 0.959844 0.500000
v -0.851524 0.843086 0.500000
v -0.894260 0.683593 0.500000
v -0.575273 1.002580 0.500000
v -0.894260 0.683593 -1.377320
v -0.851524 0.843086 -1.377320
v -0.734766 0.959844 -1.377320
v -0.575273 1.002580 -1.377320
v 0.851524 0.843086 0.500000
v 0.734766 0.959844 0.500000
v 0.575273 1.002580 0.500000
v 0.894260 0.683593 0.500000
v 0.894260 0.683593 -1.377320
v 0.575273 1.002580 -1.377320
v 0.734766 0.959844 -1.377320
v 0.851524 0.843086 -1.377320
v -0.298087 1.002580 0.500000
v 0.298087 1.002580 0.500000
v 0.298087 1.002580 -1.377320
v -0.298087 1.002580 -1.377320
v -0.486325 0.202005 0.500000
v -0.894260 0.410514 0.500000
v -0.894260 0.410514 -1.377320
v -0.486325 0.202005 -1.377320
v 0.894260 0.410514 0.500000
v 0.486325 0.202005 0.500000
v 0.486325 0.202005 -1.377320
v 0.894260 0.410514 -1.377320
vt 0.220130 0.744276
vt 0.235319 0.767060
vt 0.235319 0.789844
vt 0.235319 0.835412
vt 0.038549 0.555945
vt 0.235319 0.880979
vt 0.220130 0.835412
vt 0.296076 0.767060
vt 0.220130 0.767060
vt 0.220130 0.789844
vt 0.035642 0.557918
vt 0.209062 0.790441
vt 0.204941 0.789844
vt 0.204715 0.778979
vt 0.213183 0.790522
vt 0.159373 0.778975
vt 0.035642 0.492548
vt 0.204941 0.835412
vt 0.159373 0.789844
vt 0.209062 0.834814
vt 0.080862 0.429199
vt 0.250508 0.789844
vt 0.246387 0.790441
vt 0.242266 0.790522
vt 0.250735 0.778979
vt 0.121882 0.490575
vt 0.296076 0.778975
vt 0.242266 0.834734
vt 0.246387 0.834814
vt 0.296076 0.789844
vt 0.250508 0.835412
vt 0.044001 0.719576
vt 0.235319 0.789844
vt 0.235319 0.835412
vt 0.220130 0.835412
vt 0.204941 0.762865
vt 0.215334 0.744276
vt 0.204941 0.767060
vt 0.220130 0.858195
vt 0.220130 0.880979
vt 0.204941 0.862391
vt 0.235319 0.744276
vt 0.240115 0.744276
vt 0.121882 0.555945
vt 0.215334 0.926547
vt 0.220130 0.926547
vt 0.159373 0.762865
vt 0.159373 0.767060
vt 0.250508 0.762865
vt 0.296076 0.762865
vt 0.250508 0.767060
vt 0.240115 0.880979
vt 0.235319 0.926547
vt 0.204941 0.926547
vt 0.215334 0.880979
vt 0.250508 0.926547
vt 0.240115 0.926547
vt 0.121882 0.578961
vt 0.064861 0.680945
vt 0.240115 0.880979
vt 0.240115 0.926547
vt 0.250508 0.762865
vt 0.250508 0.862391
vt 0.035642 0.580934
vt 0.204941 0.762865
vt 0.215334 0.926547
vt 0.092664 0.682918
vt 0.215334 0.880979
vt 0.250508 0.767060
vt 0.250508 0.767060
vt 0.250508 0.767060
vt 0.220130 0.880979
vt 0.220130 0.880979
vt 0.118976 0.682918
vt 0.204941 0.767060
vt 0.204941 0.767060
vt 0.204941 0.767060
vt 0.220130 0.744276
vt 0.220130 0.926547
vt 0.220130 0.789844
vt 0.220130 0.789844
vt 0.220130 0.835412
vt 0.044001 0.969576
vt 0.235319 0.835412
vt 0.127335 0.969576
vt 0.220130 0.835412
vt 0.118976 0.432918
vt 0.220130 0.835412
vt 0.220130 0.835412
vt 0.235319 0.789844
vt 0.127335 0.719576
vt 0.235319 0.835412
vt 0.038549 0.430945
vt 0.235319 0.835412
vt 0.235319 0.835412
vt 0.235319 0.789844
vt 0.235319 0.789844
vt 0.235319 0.789844
vt 0.235319 0.789844
vt 0.220130 0.789844
vt 0.220130 0.789844
vt 0.220130 0.789844
vt 0.220130 0.789844
vt 0.296076 0.778975
vt 0.121882 0.430945
vt 0.250508 0.789844
vt 0.250508 0.789844
vt 0.250735 0.778979
vt 0.250735 0.778979
vt 0.246387 0.834814
vt 0.099272 0.427668
vt 0.246387 0.790441
vt 0.246387 0.790441
vt 0.242266 0.834734
vt 0.076662 0.427226
vt 0.242266 0.790522
vt 0.242266 0.790522
vt 0.213183 0.834734
vt 0.213183 0.834734
vt 0.209062 0.834814
vt 0.058252 0.429641
vt 0.209062 0.790441
vt 0.209062 0.790441
vt 0.213183 0.790522
vt 0.213183 0.790522
vt 0.035642 0.432918
vt 0.204941 0.789844
vt 0.204941 0.789844
vt 0.159373 0.778975
vt 0.204715 0.778979
vt 0.204715 0.778979
vt 0.121882 0.555945
vt 0.296076 0.767060
vt 0.159373 0.767060
vt 0.035642 0.557918
vt 0.038549 0.680945
vt 0.235319 0.880979
vt 0.235319 0.880979
vt 0.235319 0.744276
vt 0.235319 0.926547
vt 0.038549 0.555945
vt 0.235319 0.858195
vt 0.235319 0.858195
vt 0.220130 0.858195
vt 0.118976 0.557918
vt 0.118976 0.557918
vt 0.235319 0.767060
vt 0.235319 0.767060
vt 0.235319 0.767060
vt 0.220130 0.767060
vt 0.220130 0.767060
vt 0.220130 0.767060
vn 0.000000 0.000000 1.000000
vn 0.000000 0.000000 1.000000
vn 0.000000 0.000000 1.000000
vn 0.000000 0.000000 1.000000
vn 0.000000 0.000000 1.000000
vn 0.000000 0.000000 1.000000
vn 0.000000 0.000000 1.000000
vn 0.000000 0.000000 1.000000
vn 0.000000 0.000000 1.000000
vn -0.097401 0.995245 0.000000
vn -0.097401 0.995245 0.000000
vn 0.000000 1.000000 0.000000
vn 0.000000 1.000000 0.000000
vn 0.000000 1.000000 0.000000
vn 0.000000 1.000000 0.000000
vn 0.000000 1.000000 0.000000
vn 0.000000 1.000000 0.000000
vn 0.000000 1.000000 0.000000
vn 0.097401 0.995245 0.000000
vn 0.000000 1.000000 0.000000
vn 0.097401 0.995245 0.000000
vn 0.000000 0.000000 -1.000000
vn -0.000000 0.000000 -1.000000
vn -0.000000 0.000000 -1.000000
vn -0.000000 0.000000 -1.000000
vn 0.000000 0.000000 -1.000000
vn -0.000000 0.000000 -1.000000
vn -0.000000 0.000000 -1.000000
vn -0.000000 0.000000 -1.000000
vn 0.000000 0.000000 -1.000000
vn 0.000000 0.000000 -1.000000
vn 0.000000 0.000000 -1.000000
vn 0.000000 0.000000 -1.000000
vn 0.598598 -0.801050 0.000000
vn 0.598598 -0.801050 0.000000
vn 0.176509 -0.984299 0.000000
vn 0.176509 -0.984299 0.000000
vn -0.176509 -0.984299 0.000000
vn -0.176509 -0.984299 0.000000
vn -0.598598 -0.801050 0.000000
vn -0.598598 -0.801050 0.000000
vn 1.000000 0.000000 0.000000
vn 1.000000 0.000000 0.000000
vn 1.000000 0.000000 0.000000
vn 1.000000 0.000000 0.000000
vn 0.992216 0.124531 0.000000
vn 0.992216 0.124530 0.000000
vn -1.000000 0.000000 0.000000
vn -1.000000 0.000000 0.000000
vn -1.000000 0.000000 0.000000
vn -1.000000 0.000000 0.000000
vn -0.992216 0.124531 0.000000
vn -0.992216 0.124530 0.000000
vn -0.866026 0.500000 0.000000
vn -0.866025 0.500000 0.000000
vn -0.500000 0.866025 0.000000
vn -0.500000 0.866025 0.000000
vn 0.500000 0.866025 0.000000
vn 0.500000 0.866025 0.000000
vn 0.866025 0.500000 0.000000
vn 0.866026 0.500000 0.000000
vn 0.000000 0.000000 1.000000
vn 0.000000 0.000000 1.000000
vn 0.000000 0.000000 1.000000
vn 0.000000 0.000000 1.000000
vn 0.000000 0.000000 1.000000
vn 0.000000 0.000000 -1.000000
vn 0.000000 0.000000 -1.000000
vn 0.000000 0.000000 -1.000000
vn 0.000000 0.000000 -1.000000
vn 0.000000 0.000000 1.000000
vn 0.000000 0.000000 1.000000
vn 0.000000 0.000000 1.000000
vn 0.000000 0.000000 1.000000
vn -0.000000 0.000000 -1.000000
vn 0.000000 0.000000 -1.000000
vn 0.000000 0.000000 -1.000000
vn 0.000000 0.000000 -1.000000
vn 0.000000 0.000000 0.000000
vn 0.000000 0.000000 0.000000
vn 0.000000 0.000000 0.000000
vn 0.000000 0.000000 0.000000
vn 0.000000 0.000000 0.000000
vn 0.000000 0.000000 0.000000
vn 0.000000 0.000000 0.000000
vn 0.000000 0.000000 0.000000
vn 0.000000 0.000000 0.000000
vn 0.000000 0.000000 0.000000
vn 0.000000 0.000000 0.000000
vn 0.000000 0.000000 0.000000
vn 0.000000 0.000000 0.000000
vn 0.000000 0.000000 0.000000
vn 0.000000 0.000000 0.000000
vn 0.000000 0.000000 0.000000
vn 0.000000 0.000000 1.000000
vn 0.000000 0.000000 1.000000
vn -0.455128 -0.890426 0.000000
vn -0.455128 -0.890426 0.000000
vn -0.455128 -0.890426 0.000000
vn -0.455128 -0.890426 0.000000
vn 0.455128 -0.890426 0.000000
vn 0.455128 -0.890426 0.000000
vn 0.455128 -0.890426 0.000000
vn 0.455128 -0.890426 0.000000
s 1
g pCube1
usemtl blinn1SG
f 1/78/1 2/42/2 4/150/3
f 4/150/3 2/42/2 5/148/4
f 6/51/5 5/147/4 41/49/6
f 5/147/4 2/139/2 41/49/6
f 2/139/2 42/43/7 41/49/6
f 4/9/3 5/149/4 7/100/8
f 7/100/8 5/149/4 8/98/9
s 3
f 24/118/10 20/124/11 9/86/12
f 9/86/12 20/124/11 7/102/13
s 4
f 33/32/14 34/91/15 36/83/16
f 36/83/16 34/91/15 35/85/17
s 5
f 8/96/18 27/116/19 10/94/20
f 10/94/20 27/116/19 30/114/21
s 6
f 9/88/22 10/92/23 12/144/24
f 12/144/24 10/92/23 13/142/25
f 11/11/26 12/146/24 39/64/27
f 12/146/24 15/74/28 39/64/27
f 15/74/28 40/67/29 39/64/27
f 12/39/24 13/143/25 15/73/28
f 15/73/28 13/143/25 16/137/30
f 13/5/25 14/132/31 16/136/30
f 14/132/31 44/58/32 16/136/30
f 44/58/32 43/59/33 16/136/30
s 8
f 37/66/34 40/55/35 1/79/36
f 1/79/36 40/55/35 15/40/37
f 15/72/37 16/138/38 1/46/36
f 1/46/36 16/138/38 2/53/39
f 16/6/38 43/60/40 2/140/39
f 2/140/39 43/60/40 42/57/41
s 5
f 41/62/42 44/50/43 6/71/44
f 6/71/44 44/50/43 14/8/45
f 6/70/44 14/133/45 28/108/46
f 28/108/46 14/133/45 29/27/47
s 3
f 39/47/48 38/36/49 11/134/50
f 11/134/50 38/36/49 3/38/51
f 11/48/50 3/75/51 21/129/52
f 21/129/52 3/75/51 19/130/53
f 19/131/53 18/127/54 21/16/52
f 21/16/52 18/127/54 22/19/55
f 18/128/54 17/122/56 22/18/55
f 22/18/55 17/122/56 23/120/57
f 17/123/56 20/15/11 23/20/57
f 23/20/57 20/15/11 24/119/10
s 5
f 27/117/19 26/112/58 30/28/21
f 30/28/21 26/112/58 31/110/59
f 26/113/58 25/106/60 31/29/59
f 31/29/59 25/106/60 32/31/61
f 25/107/60 28/25/46 32/30/61
f 32/30/61 28/25/46 29/104/47
s 1
f 3/76/62 4/152/3 19/14/63
f 4/152/3 7/101/8 19/14/63
f 7/101/8 20/125/64 19/14/63
f 19/14/63 20/125/64 18/13/65
f 17/12/66 18/13/65 20/125/64
s 6
f 9/87/22 12/145/24 24/21/67
f 12/145/24 11/135/26 24/21/67
f 11/135/26 21/17/68 24/21/67
f 21/17/68 22/126/69 24/21/67
f 22/126/69 23/121/70 24/21/67
s 1
f 8/97/9 5/2/4 27/24/71
f 5/2/4 6/69/5 27/24/71
f 6/69/5 28/109/72 27/24/71
f 27/24/71 28/109/72 26/23/73
f 25/22/74 26/23/73 28/109/72
s 6
f 14/44/31 13/141/25 29/26/75
f 13/141/25 10/93/23 29/26/75
f 10/93/23 30/115/76 29/26/75
f 29/26/75 30/115/76 32/105/77
f 30/115/76 31/111/78 32/105/77
s 11
f 33/80/79 7/10/80 34/90/81
f 7/10/80 8/99/82 34/90/81
s 12
f 34/33/83 8/3/84 35/84/85
f 8/3/84 10/95/86 35/84/85
s 13
f 35/34/87 10/4/88 36/82/89
f 10/4/88 9/89/90 36/82/89
s 14
f 36/35/91 9/7/92 33/81/93
f 9/7/92 7/103/94 33/81/93
s 1
f 4/151/3 3/77/62 1/1/1
f 3/77/62 38/65/95 1/1/1
f 38/65/95 37/37/96 1/1/1
s 15
f 37/45/97 38/54/98 40/68/99
f 40/68/99 38/54/98 39/41/100
s 16
f 41/56/101 42/61/102 44/63/103
f 44/63/103 42/61/102 43/52/104
g default
v 0.191030 0.896421 -2.742744
v 0.072967 0.982199 -2.742744
v -0.072967 0.982199 -2.742744
v -0.191030 0.896421 -2.742744
v -0.236126 0.757630 -2.742744
v -0.191030 0.618839 -2.742744
v -0.072967 0.533061 -2.742744
v 0.072967 0.533061 -2.742744
v 0.191030 0.618839 -2.742744
v 0.236126 0.757630 -2.742744
v 0.191030 0.896421 -1.352878
v 0.072967 0.982199 -1.352878
v -0.072967 0.982199 -1.352878
v -0.191030 0.896421 -1.352878
v -0.236126 0.757630 -1.352878
v -0.191030 0.618839 -1.352878
v -0.072967 0.533061 -1.352878
v 0.072967 0.533061 -1.352878
v 0.191030 0.618839 -1.352878
v 0.236126 0.757630 -1.352878
v 0.000000 0.757630 -2.742744
vt 0.450721 0.804289
vt 0.426305 0.786550
vt 0.396124 0.786550
vt 0.371708 0.804289
vt 0.362382 0.832992
vt 0.371708 0.861695
vt 0.396124 0.879435
vt 0.426305 0.879435
vt 0.450721 0.861695
vt 0.460047 0.832992
vt 0.332184 0.720005
vt 0.347595 0.720005
vt 0.363007 0.720005
vt 0.378418 0.720005
vt 0.393830 0.720005
vt 0.409241 0.720005
vt 0.424653 0.720005
vt 0.440065 0.720005
vt 0.455476 0.720005
vt 0.470888 0.720005
vt 0.486299 0.720005
vt 0.332184 0.951758
vt 0.347595 0.951758
vt 0.363007 0.951758
vt 0.378418 0.951758
vt 0.393830 0.951758
vt 0.409241 0.951758
vt 0.424653 0.951758
vt 0.440065 0.951758
vt 0.455476 0.951758
vt 0.470888 0.951758
vt 0.486299 0.951758
vt 0.411215 0.831039
vt 0.411215 0.831039
vt 0.411215 0.831039
vt 0.411215 0.831039
vt 0.411215 0.831039
vt 0.411215 0.831039
vt 0.411215 0.831039
vt 0.411215 0.831039
vt 0.411215 0.831039
vt 0.411215 0.831039
vt 0.470888 0.720005
vt 0.460047 0.832992
vt 0.455476 0.720005
vt 0.450721 0.861695
vt 0.440065 0.720005
vt 0.426305 0.879435
vt 0.424653 0.720005
vt 0.396124 0.879435
vt 0.409241 0.720005
vt 0.371708 0.861695
vt 0.393830 0.720005
vt 0.362382 0.832992
vt 0.378418 0.720005
vt 0.371708 0.804289
vt 0.363007 0.720005
vt 0.396124 0.786550
vt 0.347595 0.720005
vt 0.426305 0.786550
vt 0.450721 0.804289
vt 0.470888 0.951758
vt 0.455476 0.951758
vt 0.440065 0.951758
vt 0.424653 0.951758
vt 0.409241 0.951758
vt 0.393830 0.951758
vt 0.378418 0.951758
vt 0.363007 0.951758
vt 0.347595 0.951758
vn 0.587785 0.809017 -0.000000
vn 0.587785 0.809017 -0.000000
vn 0.587785 0.809017 -0.000000
vn 0.587785 0.809017 -0.000000
vn -0.000000 1.000000 -0.000000
vn -0.000000 1.000000 -0.000000
vn -0.000000 1.000000 -0.000000
vn -0.000000 1.000000 -0.000000
vn -0.587785 0.809017 -0.000000
vn -0.587785 0.809017 -0.000000
vn -0.587785 0.809017 -0.000000
vn -0.587785 0.809017 -0.000000
vn -0.951057 0.309017 -0.000000
vn -0.951057 0.309017 -0.000000
vn -0.951057 0.309017 -0.000000
vn -0.951057 0.309017 -0.000000
vn -0.951057 -0.309017 0.000000
vn -0.951057 -0.309017 0.000000
vn -0.951057 -0.309017 0.000000
vn -0.951057 -0.309017 0.000000
vn -0.587785 -0.809017 0.000000
vn -0.587785 -0.809017 0.000000
vn -0.587785 -0.809017 0.000000
vn -0.587785 -0.809017 0.000000
vn 0.000000 -1.000000 0.000000
vn 0.000000 -1.000000 0.000000
vn 0.000000 -1.000000 0.000000
vn 0.000000 -1.000000 0.000000
vn 0.587785 -0.809017 0.000000
vn 0.587785 -0.809017 0.000000
vn 0.587785 -0.809017 0.000000
vn 0.587785 -0.809017 0.000000
vn 0.951057 -0.309017 0.000000
vn 0.951057 -0.309017 0.000000
vn 0.951057 -0.309017 0.000000
vn 0.951057 -0.309017 0.000000
vn 0.951057 0.309017 -0.000000
vn 0.951057 0.309017 -0.000000
vn 0.951057 0.309017 -0.000000
vn 0.951057 0.309017 -0.000000
vn 0.000000 -0.000000 -1.000000
vn 0.000000 -0.000000 -1.000000
vn 0.000000 0.000000 -1.000000
vn 0.000000 -0.000000 -1.000000
vn 0.000000 -0.000000 -1.000000
vn 0.000000 -0.000000 -1.000000
vn 0.000000 0.000000 -1.000000
vn 0.000000 0.000000 -1.000000
vn 0.000000 -0.000000 -1.000000
vn 0.000000 -0.000000 -1.000000
vn 0.000000 -0.000000 -1.000000
s 1
g pCylinder1
usemtl blinn1SG
f 45/163/105 46/164/106 55/174/107
f 55/174/107 46/164/106 56/222/108
s 2
f 46/211/109 47/165/110 56/175/111
f 56/175/111 47/165/110 57/221/112
s 3
f 47/209/113 48/166/114 57/176/115
f 57/176/115 48/166/114 58/220/116
s 4
f 48/207/117 49/167/118 58/177/119
f 58/177/119 49/167/118 59/219/120
s 5
f 49/205/121 50/168/122 59/178/123
f 59/178/123 50/168/122 60/218/124
s 6
f 50/203/125 51/169/126 60/179/127
f 60/179/127 51/169/126 61/217/128
s 7
f 51/201/129 52/170/130 61/180/131
f 61/180/131 52/170/130 62/216/132
s 8
f 52/199/133 53/171/134 62/181/135
f 62/181/135 53/171/134 63/215/136
s 9
f 53/197/137 54/172/138 63/182/139
f 63/182/139 54/172/138 64/214/140
s 10
f 54/195/141 45/173/142 64/183/143
f 64/183/143 45/173/142 55/184/144
s 11
f 46/154/145 45/213/146 65/186/147
f 47/155/148 46/212/145 65/187/147
f 48/156/149 47/210/148 65/188/147
f 49/157/150 48/208/149 65/189/147
f 50/158/151 49/206/150 65/190/147
f 51/159/152 50/204/151 65/191/147
f 52/160/153 51/202/152 65/192/147
f 53/161/154 52/200/153 65/193/147
f 54/162/155 53/198/154 65/194/147
f 45/153/146 54/196/155 65/185/147
